HIERARCHY
ROOT Hips
{
  OFFSET 0 89.5177 0.535
  CHANNELS 6 Xposition Yposition Zposition Zrotation Xrotation Yrotation
  JOINT Spine
  {
    OFFSET 12.0259 -0.162855 1.69034e-005
    CHANNELS 3 Zrotation Xrotation Yrotation
    JOINT Spine1
    {
      OFFSET 15.3169 -0.0121922 0
      CHANNELS 3 Zrotation Xrotation Yrotation
      JOINT Spine2
      {
        OFFSET 15.3176 -0.0121908 0
        CHANNELS 3 Zrotation Xrotation Yrotation
        JOINT Neck
        {
          OFFSET 19.9142 1.56338 0
          CHANNELS 3 Zrotation Xrotation Yrotation
          JOINT Head
          {
            OFFSET 6.92651 0 0
            CHANNELS 3 Zrotation Xrotation Yrotation
            End Site
            {
              OFFSET 20.7666 0 0
            }
          }
          JOINT LeftShoulder
          {
            OFFSET -6.20654 0.708824 7.28219
            CHANNELS 3 Zrotation Xrotation Yrotation
            JOINT LeftArm
            {
              OFFSET 14.108 0 -1.52588e-005
              CHANNELS 3 Zrotation Xrotation Yrotation
              JOINT LeftForeArm
              {
                OFFSET 28.5802 0 0
                CHANNELS 3 Zrotation Xrotation Yrotation
                JOINT LeftHand
                {
                  OFFSET 27.092 0 0
                  CHANNELS 3 Zrotation Xrotation Yrotation
                  End Site
                  {
                    OFFSET 9.55928 -0.186424 0.145352
                  }
                }
              }
            }
          }
          JOINT RightShoulder
          {
            OFFSET -6.20654 0.708866 -7.28218
            CHANNELS 3 Zrotation Xrotation Yrotation
            JOINT RightArm
            {
              OFFSET 14.108 0 1.52588e-005
              CHANNELS 3 Zrotation Xrotation Yrotation
              JOINT RightForeArm
              {
                OFFSET 28.5802 0 0
                CHANNELS 3 Zrotation Xrotation Yrotation
                JOINT RightHand
                {
                  OFFSET 27.092 0 0
                  CHANNELS 3 Zrotation Xrotation Yrotation
                  End Site
                  {
                    OFFSET 9.55929 -0.186417 -0.145354
                  }
                }
              }
            }
          }
        }
      }
    }
  }
  JOINT LeftUpLeg
  {
    OFFSET 0.005 -0.535 8.837
    CHANNELS 3 Zrotation Xrotation Yrotation
    JOINT LeftLeg
    {
      OFFSET 39.9035 0 0
      CHANNELS 3 Zrotation Xrotation Yrotation
      JOINT LeftFoot
      {
        OFFSET 39.6689 0 0
        CHANNELS 3 Zrotation Xrotation Yrotation
        JOINT LeftToe
        {
          OFFSET 10.1624 13.6296 0
          CHANNELS 3 Zrotation Xrotation Yrotation
          End Site
          {
            OFFSET 8.38147 0 0
          }
        }
      }
    }
  }
  JOINT RightUpLeg
  {
    OFFSET 0.005 -0.535 -8.837
    CHANNELS 3 Zrotation Xrotation Yrotation
    JOINT RightLeg
    {
      OFFSET 39.9035 0 0
      CHANNELS 3 Zrotation Xrotation Yrotation
      JOINT RightFoot
      {
        OFFSET 39.6689 0 0
        CHANNELS 3 Zrotation Xrotation Yrotation
        JOINT RightToe
        {
          OFFSET 10.1624 13.6296 0
          CHANNELS 3 Zrotation Xrotation Yrotation
          End Site
          {
            OFFSET 8.38147 0 0
          }
        }
      }
    }
  }
}
MOTION
Frames:	9
Frame Time:	0.0333333
595.595 82.0293 -221.055 108.31 28.4495 -9.91116 -0.336874 0.73438 -0.989277 -0.661097 1.47492 -1.97429 -0.661097 1.47492 -1.9743 -8.31146e-012 -9.0191e-006 -5.27751e-005 -6.94403 1.9447 -4.6879 -178.978 -3.48009 -73.6195 -18.5856 20.2361 61.9725 -74.858 0 -0 -43.4961 -43.7909 -31.1872 -178.27 5.68423 73.0416 -4.12267 0.780178 -65.1036 -68.3379 0 -0 -44.4792 53.0211 40.6196 -30.0499 3.31998 -160.009 -40.8621 -2.22639e-014 -6.36111e-015 24.0785 2.38026 -13.502 90 0 6.36111e-015 -30.075 0.808247 164.667 -37.0434 -6.36111e-015 -3.18056e-015 23.5005 -3.67851 16.0084 90 -6.06643e-021 -3.18055e-015 
597.366 81.7293 -220.267 109.21 26.8548 -10.2938 -0.302305 0.501015 -0.917319 -0.596582 1.00727 -1.83191 -0.596582 1.00727 -1.83192 -8.30828e-012 -9.0191e-006 -5.27751e-005 -8.48939 2.54951 -4.03792 -179.28 -2.46624 -73.724 -18.9944 20.2677 61.538 -76.2172 7.95139e-016 -7.95139e-016 -44.0404 -44.2866 -31.8774 -178.21 5.58198 72.1841 -4.81098 0.220063 -64.4293 -70.6454 -3.18055e-015 -9.54166e-015 -42.3029 52.833 38.0748 -30.3207 4.69296 -160.289 -38.9167 -3.18055e-015 2.38542e-015 26.1887 3.14653 -14.3351 90 0 9.54166e-015 -32.103 2.01563 164.164 -36.601 -3.18056e-015 -0 22.1874 -4.1014 17.1366 90 3.63986e-020 -0 
599.02 81.6451 -219.352 109.618 24.8746 -9.57976 -0.138341 0.427887 -0.990351 -0.269275 0.858569 -1.97958 -0.269275 0.858569 -1.97959 -8.30669e-012 -9.0191e-006 -5.27751e-005 -9.72943 2.84852 -3.74467 -179.695 -1.03552 -73.5755 -18.8265 20.1232 60.6742 -76.5104 -3.97569e-016 -5.96354e-016 -46.6583 -43.7038 -34.2554 -178.248 5.25918 71.5451 -4.48811 -0.0411806 -64.4667 -72.0269 0 6.36111e-015 -43.0094 51.4467 38.2839 -32.9859 8.90559 -160.333 -40.2574 3.18055e-015 1.59028e-015 25.9116 4.06136 -15.7071 90 1.21329e-020 -0 -33.4691 3.64368 163.184 -35.3954 9.54167e-015 -6.36111e-015 20.4769 -4.72841 18.2221 90 6.06643e-021 -3.18055e-015 
600.806 81.7805 -218.475 110.56 24.2068 -9.18773 -0.000685429 0.171529 -1.03243 0.00172343 0.343511 -2.0647 0.00172346 0.343511 -2.06471 -8.31066e-012 -9.0191e-006 -5.27751e-005 -10.4444 2.92792 -3.65064 179.952 0.159673 -73.3928 -18.8488 19.719 59.3724 -75.9386 0 2.98177e-016 -49.2951 -43.62 -37.1388 -178.357 4.81842 71.1516 -3.37652 -0.265955 -65.2282 -72.7202 6.36111e-015 -1.59028e-015 -45.123 50.447 40.1267 -35.4953 10.5391 -161.581 -41.6567 9.54166e-015 7.95139e-016 25.8518 4.61025 -14.2528 90 0 -0 -34.5967 3.69348 161.619 -33.1669 -6.36111e-015 -0 18.1662 -5.18691 19.1656 90 -1.21329e-020 -0 
602.412 81.9571 -217.621 111.402 23.8699 -9.0067 0.171957 0.0460721 -1.03545 0.344722 0.0894993 -2.07087 0.344722 0.0894993 -2.07088 -8.31305e-012 -9.0191e-006 -5.27751e-005 -10.8046 2.37094 -3.74825 179.532 1.59838 -73.6781 -18.952 19.0042 58.4056 -75.2794 -7.95139e-016 -0 -50.9109 -42.9905 -39.0652 -178.396 4.62675 70.8571 -2.01957 -0.341937 -66.1024 -73.0337 3.18055e-015 -7.95139e-015 -47.5125 50.1022 42.6159 -37.1535 11.0177 -162.986 -42.3933 6.36111e-015 -0 25.6714 4.64548 -12.9553 90 -2.42657e-020 6.36111e-015 -36.4459 0.862227 159.859 -31.2055 -1.59028e-015 3.18056e-015 15.0699 -5.29367 19.5626 90 2.42657e-020 3.18055e-015 
603.799 82.0828 -216.986 111.804 22.7834 -8.85352 0.36071 0.101826 -0.933855 0.723037 0.198228 -1.86817 0.723037 0.198228 -1.86818 -8.31066e-012 -9.0191e-006 -5.27751e-005 -10.6409 2.0107 -4.34139 179.38 2.14564 -73.8796 -19.1114 18.0359 57.6722 -75.3292 -7.95139e-016 -7.95139e-016 -50.7705 -41.9582 -38.6362 -178.532 4.22767 70.8266 -1.0418 -0.590495 -66.4591 -73.4622 -6.36111e-015 1.59028e-015 -48.8552 50.2421 44.1079 -38.5565 12.0932 -163.425 -43.1461 1.59028e-014 -4.77083e-015 25.6546 4.80423 -11.9272 90 0 -0 -38.7398 -3.23729 158.65 -30.018 1.59028e-015 -6.36111e-015 11.7685 -4.52762 19.2504 90 -1.21329e-020 -0 
605.16 82.1416 -216.661 112.084 20.7899 -8.13624 0.559163 0.339462 -0.910904 1.12368 0.670447 -1.82496 1.12368 0.670447 -1.82497 -8.3051e-012 -9.0191e-006 -5.27751e-005 -10.3904 1.8053 -4.98028 179.401 2.07386 -73.8792 -18.779 16.8528 57.0223 -76.1845 0 7.95139e-016 -51.3375 -41.8847 -39.0941 -178.629 3.94339 70.8162 -0.95964 -0.676026 -66.2016 -73.9527 0 -1.59028e-015 -49.0232 50.3821 44.3019 -39.7042 13.5154 -163.671 -43.6553 3.18055e-015 -5.56597e-015 25.56 4.38805 -11.1637 90 0 -3.18055e-015 -41.6277 -7.19145 157.574 -30.5612 0 -3.18056e-015 9.71185 -3.58271 18.3126 90 -1.21329e-020 -0 
606.511 82.2228 -216.654 112.609 18.5308 -7.51342 0.796167 0.625428 -0.903125 1.60224 1.23864 -1.81485 1.60224 1.23864 -1.81486 -8.31623e-012 -9.0191e-006 -5.27751e-005 -10.9973 1.77985 -5.47958 179.505 1.71991 -73.9573 -18.0589 15.1353 56.647 -77.3054 -2.38542e-015 3.97569e-016 -52.9372 -42.2308 -41.2848 -178.85 3.33069 70.9414 -1.06529 -0.528488 -65.8147 -74.4471 -6.36111e-015 -0 -48.9569 50.4184 44.0929 -40.9266 14.4816 -163.671 -43.8241 -6.36111e-015 -0 25.252 3.62461 -10.685 90 1.21329e-020 -0 -43.602 -8.88163 157.785 -32.4692 2.68359e-015 6.36111e-015 10.1387 -2.23821 17.2033 90 -1.21329e-020 -0 
607.711 82.2708 -216.893 113.491 16.7866 -7.04663 1.02091 0.820839 -0.899359 2.05489 1.62589 -1.81332 2.05489 1.62589 -1.81333 -8.30669e-012 -9.0191e-006 -5.27751e-005 -11.9689 1.75808 -5.98349 179.431 1.97766 -73.9423 -16.1994 13.5884 56.5324 -78.8723 0 5.96354e-016 -54.3273 -42.7818 -43.4137 -179.091 2.66011 71.1221 -1.4017 -0.140962 -65.3413 -74.5983 0 -0 -48.9666 50.313 43.868 -42.3815 15.0005 -163.724 -43.876 -9.54166e-015 -5.56597e-015 24.8153 2.94814 -10.4016 90 -1.21329e-020 -3.18055e-015 -45.1803 -8.1596 158.887 -36.2601 5.96354e-016 3.18056e-015 13.2691 -1.67769 14.2474 90 3.97569e-016 -7.95139e-016 
